<?xml version="1.0" standalone="no"?><!DOCTYPE svg PUBLIC "-//W3C//DTD SVG 1.1//EN" "http://www.w3.org/Graphics/SVG/1.1/DTD/svg11.dtd"><svg t="1628399866371" class="icon" viewBox="0 0 1024 1024" version="1.1" xmlns="http://www.w3.org/2000/svg" p-id="11071" xmlns:xlink="http://www.w3.org/1999/xlink" width="64" height="64"><defs><style type="text/css"></style></defs><path d="M878.08 778.24v-169.984c0-52.736-60.928-56.32-60.928-56.32v-144.384c0.512-115.2-62.976-162.816-124.928-167.424-13.824-80.384-89.088-142.336-179.712-142.336-89.6 0-163.84 60.416-179.2 139.776-143.36 29.696-124.416 172.032-124.416 172.032v141.312c-67.584 1.024-63.488 61.44-63.488 61.44v164.352c0 51.712 63.488 55.808 63.488 55.808 0 100.864 120.32 93.184 120.32 93.184h366.08c128 0 120.32-92.16 120.32-92.16 70.144-11.776 62.464-55.296 62.464-55.296z m-365.056-616.96c51.712 0 95.232 31.744 109.056 75.776H404.48c13.824-44.032 57.344-75.776 108.544-75.776z m175.616 531.968h-18.432v26.624c0 14.848-12.8 27.136-29.184 27.136s-29.184-12.288-29.184-27.136v-26.624h-275.968c-16.384 0-29.184-12.288-29.184-27.136s12.8-27.136 29.184-27.136h353.28c16.384 0 29.184 12.288 29.184 27.136s-13.312 27.136-29.696 27.136z" p-id="11072" fill="#ffd800"></path></svg>