<?xml version="1.0" standalone="no"?><!DOCTYPE svg PUBLIC "-//W3C//DTD SVG 1.1//EN" "http://www.w3.org/Graphics/SVG/1.1/DTD/svg11.dtd"><svg t="1628398690045" class="icon" viewBox="0 0 1024 1024" version="1.1" xmlns="http://www.w3.org/2000/svg" p-id="2335" xmlns:xlink="http://www.w3.org/1999/xlink" width="64" height="64"><defs><style type="text/css"></style></defs><path d="M510.4 374.9v422l335.9-63.8V527.5c0-8.6 7.5-15.3 16-14.3l41.3 6.4c7.3 0.8 12.8 7 12.8 14.3v238.8c0 6.8-4.7 12.7-11.4 14.1l-367.7 79.1c-17.8 3.8-36.1 3.9-53.9 0.1l-363.8-76.5c-6.5-1.4-11.3-7.1-11.4-13.7l-6.3-242.6c-0.2-7.6 5.6-14.1 13.1-14.7l309-27.2c5.4-0.5 10-3.9 12.1-8.9l46.6-113.1c5.9-14.5 27.7-10.2 27.7 5.6z" fill="#626264" p-id="2336"></path><path d="M98.4 236.7L1.4 444c-4.7 10.1 3.4 21.6 14.5 20.4l364.2-36.8c5.1-0.5 9.6-3.8 11.7-8.5l117.2-264-400.2 73.5c-4.6 0.9-8.5 3.9-10.4 8.1z" fill="#FF9623" p-id="2337"></path><path d="M509 155.2l124 272.3c2.2 4.8 6.7 8 12 8.4l363.5 29.2c11 0.9 18.8-10.3 14.3-20.3L928 237c-2-4.3-5.9-7.4-10.6-8.2L509 155.2z" fill="#00A9BA" p-id="2338"></path></svg>