<?xml version="1.0" standalone="no"?><!DOCTYPE svg PUBLIC "-//W3C//DTD SVG 1.1//EN" "http://www.w3.org/Graphics/SVG/1.1/DTD/svg11.dtd"><svg t="1628688437521" class="icon" viewBox="0 0 1024 1024" version="1.1" xmlns="http://www.w3.org/2000/svg" p-id="20130" xmlns:xlink="http://www.w3.org/1999/xlink" width="64" height="64"><defs><style type="text/css"></style></defs><path d="M709.370142 332.018888a9.159462 9.159462 0 0 0-9.112968-9.112967l-75.321467 0.325463L511.442063 458.531057 397.994915 323.370868l-75.460952-0.371958a9.066473 9.066473 0 0 0-9.112968 9.159463c0 2.138758 0.79041 4.184526 2.185253 5.904831l148.504177 176.958954L315.699237 691.841627a9.159462 9.159462 0 0 0 6.97421 15.064294l75.414457-0.325463L511.442063 571.280785l113.354159 135.206683 75.321468 0.325463a9.066473 9.066473 0 0 0 9.159462-9.112967 9.484926 9.484926 0 0 0-2.185252-5.951326l-148.318199-176.81947 148.550672-176.958954a9.159462 9.159462 0 0 0 2.045769-5.951326z" fill="#ffd800" p-id="20131"></path><path d="M511.442063 1.115874c-282.455503 0-511.442063 229.033055-511.442063 511.442063 0 282.455503 228.98656 511.442063 511.442063 511.442063s511.442063-228.98656 511.442063-511.442063c0-282.409008-228.98656-511.442063-511.442063-511.442063z m0 936.124954a424.729386 424.729386 0 0 1-424.682891-424.682891A424.775881 424.775881 0 0 1 511.442063 87.875045a424.729386 424.729386 0 0 1 424.682892 424.682892A424.729386 424.729386 0 0 1 511.442063 937.240828z" fill="#ffd800" p-id="20132"></path></svg>