<?xml version="1.0" standalone="no"?><!DOCTYPE svg PUBLIC "-//W3C//DTD SVG 1.1//EN" "http://www.w3.org/Graphics/SVG/1.1/DTD/svg11.dtd"><svg t="1628399772326" class="icon" viewBox="0 0 1024 1024" version="1.1" xmlns="http://www.w3.org/2000/svg" p-id="10004" xmlns:xlink="http://www.w3.org/1999/xlink" width="64" height="64"><defs><style type="text/css"></style></defs><path d="M710.464 219.2v-39.744h116.032s30.272 1.6 38.208 33.344c7.936 31.808 0 122.432 0 122.432h-38.208l-1.408-77.888s1.728-44.48-35.712-35.008l-78.912-3.136z" p-id="10005" fill="#ffd800"></path><path d="M364.672 437.248s200.448-237.888 318.528-292.992c0 0 83.392-28.992 144.384 24.96 34.752 30.656 94.4 89.728 111.488 122.048 62.976 118.72-70.848 259.84-81.344 259.84S670.08 358.208 670.08 358.208 548.032 459.136 510.016 470.976c-38.016 11.776-99.136 26.88-145.344-33.728z" p-id="10006" fill="#ffd800"></path><path d="M667.584 574.208c9.216 27.648 79.104 80.384 117.376 120.64 12.096 12.864-2.88 76.096-47.744 58.368-46.656-30.016-43.776-56.128-135.744-116.992-9.28-4.416-32.384-14.912-16.512 13.12 22.016 38.144 93.376 83.904 126.016 123.392 8.448 9.984-11.52 78.976-62.272 50.496-42.368-23.872-90.624-104-135.232-126.272-9.92-2.624-22.784 1.024-4.416 27.264 18.432 26.24 81.728 76.992 110.656 104.896 20.352 19.648 12.864 106.496-82.112 30.976l-73.536 59.776s-60.352-1.344-43.328-41.984l60.352-46.72s17.216-45.376-26.24-28.736c0 0-54.464 41.024-68.864 44.864-16.896 4.48-64.96-6.848-30.848-57.344l51.136-44.096s17.088-40.64-27.52-20.864c0 0-45.312 34.752-55.808 40.768-14.08 8.128-72.832 24.384-45.312-41.344 0 0 49.216-33.728 55.104-47.232 3.904-9.024-1.664-39.104-34.112-18.368 0 0-48.384 29.504-61.376 35.136-17.664 7.616-80.384 12.096-52.8-48.256l61.248-53.504-172.8-155.072s-38.08-102.4 101.056-213.888c0 0 112.896-128.64 220.48-56.448l106.304 72.192-144.32 160s-76.864 55.872 44.672 98.496c99.712 34.624 164.032 6.592 256.256-76.352 7.872-6.976 32-0.64 63.872 34.112 43.84 47.616 126.464 121.728 162.752 162.688 13.888 15.616 10.368 86.144-60.288 57.6-37.696-14.848-126.08-102.272-126.08-102.272s-34.304-26.048-30.016 0.96z" p-id="10007" fill="#ffd800"></path></svg>