<?xml version="1.0" standalone="no"?><!DOCTYPE svg PUBLIC "-//W3C//DTD SVG 1.1//EN" "http://www.w3.org/Graphics/SVG/1.1/DTD/svg11.dtd"><svg t="1628603121638" class="icon" viewBox="0 0 1024 1024" version="1.1" xmlns="http://www.w3.org/2000/svg" p-id="16621" xmlns:xlink="http://www.w3.org/1999/xlink" width="64" height="64"><defs><style type="text/css"></style></defs><path d="M554.667 810.667v42.666h-85.334v-42.666c-93.866 0-170.666-76.8-170.666-170.667H384c0 46.933 38.4 85.333 85.333 85.333V554.667c-93.866 0-170.666-76.8-170.666-170.667s76.8-170.667 170.666-170.667v-42.666h85.334v42.666c93.866 0 170.666 76.8 170.666 170.667H640c0-46.933-38.4-85.333-85.333-85.333v170.666h17.066C601.6 469.333 640 486.4 669.867 512 704 541.867 729.6 588.8 729.6 640c-4.267 93.867-81.067 170.667-174.933 170.667z m0-85.334C601.6 725.333 640 686.933 640 640s-38.4-85.333-85.333-85.333v170.666z m-85.334-426.666C422.4 298.667 384 337.067 384 384s38.4 85.333 85.333 85.333V298.667z" fill="#ffd800" p-id="16622"></path></svg>