<?xml version="1.0" standalone="no"?><!DOCTYPE svg PUBLIC "-//W3C//DTD SVG 1.1//EN" "http://www.w3.org/Graphics/SVG/1.1/DTD/svg11.dtd"><svg t="1628513409463" class="icon" viewBox="0 0 1024 1024" version="1.1" xmlns="http://www.w3.org/2000/svg" p-id="14796" xmlns:xlink="http://www.w3.org/1999/xlink" width="64" height="64"><defs><style type="text/css"></style></defs><path d="M249.6 819.2c19.2 0 38.4-6.4 57.6-19.2h6.4l-179.2-179.2v6.4c-12.8 19.2-19.2 38.4-19.2 57.6l-64 198.4 198.4-64z m640-716.8L832 44.8c-32-32-83.2-32-115.2 0l-57.6 57.6L832 275.2l57.6-57.6c32-32 32-83.2 0-115.2z m-115.2 230.4L601.6 160 198.4 563.2l172.8 172.8 403.2-403.2zM0 940.8h1024v64H0v-64z" p-id="14797" fill="#ffd800"></path></svg>