<?xml version="1.0" standalone="no"?><!DOCTYPE svg PUBLIC "-//W3C//DTD SVG 1.1//EN" "http://www.w3.org/Graphics/SVG/1.1/DTD/svg11.dtd"><svg t="1630155834518" class="icon" viewBox="0 0 1024 1024" version="1.1" xmlns="http://www.w3.org/2000/svg" p-id="9821" xmlns:xlink="http://www.w3.org/1999/xlink" width="64" height="64"><defs><style type="text/css"></style></defs><path d="M0 512c0 282.760533 229.205333 512 512 512 282.760533 0 512-229.239467 512-512 0-282.794667-229.239467-512-512-512C229.205333 0 0 229.239467 0 512z" fill="#FFD96B" p-id="9822"></path><path d="M136.533333 512a374.6816 374.6816 0 0 0 187.4944 325.085867 376.046933 376.046933 0 0 0 375.808 0.1024A374.6816 374.6816 0 0 0 887.466667 512.1024a374.715733 374.715733 0 0 0-187.562667-325.256533 376.046933 376.046933 0 0 0-375.808 0A374.6816 374.6816 0 0 0 136.533333 511.965867z" fill="#F9AB10" p-id="9823"></path><path d="M477.457067 591.7696h-89.770667v-59.050667h89.770667v-31.982933h-89.770667v-59.118933h63.146667L375.466667 273.066667h74.513066l48.366934 113.834666c5.461333 12.0832 9.8304 24.712533 13.141333 37.6832 3.413333-12.936533 7.816533-25.531733 13.1072-37.6832L574.020267 273.066667H648.533333l-76.219733 168.618666h64.170667v59.050667H545.450667v31.9488h91.067733v59.050667H545.450667V716.8H477.525333l-0.136533-125.0304h0.068267z" fill="#FFFFFF" p-id="9824"></path></svg>