<?xml version="1.0" standalone="no"?><!DOCTYPE svg PUBLIC "-//W3C//DTD SVG 1.1//EN" "http://www.w3.org/Graphics/SVG/1.1/DTD/svg11.dtd"><svg t="1628399964633" class="icon" viewBox="0 0 1024 1024" version="1.1" xmlns="http://www.w3.org/2000/svg" p-id="11973" xmlns:xlink="http://www.w3.org/1999/xlink" width="64" height="64"><defs><style type="text/css"></style></defs><path d="M824.64 960H552.192v-288h336.448v222.72a64.768 64.768 0 0 1-64 65.28zM552.192 335.168c-11.648-3.2-30.912-8.384-39.168-16.32-0.576-0.512-1.024-1.216-1.6-1.792-0.576 0.64-0.96 1.28-1.536 1.792a59.776 59.776 0 0 1-27.392 16.32v265.472H128.32V371.84c0.128-36.032 28.608-65.28 63.808-65.344h148.224a237.888 237.888 0 0 1-45.376-33.152c-59.264-56.576-69.952-138.048-23.872-182.08C290.432 72.96 316.608 64 344.96 64c39.36 0 82.56 17.216 117.12 50.048 20.352 19.968 37.12 43.52 49.28 69.568 12.16-26.048 28.928-49.6 49.344-69.568C595.2 81.216 638.528 64 677.824 64c28.288 0 54.528 8.96 73.856 27.328 46.08 44.032 35.392 125.44-23.936 182.08a237.44 237.44 0 0 1-45.376 33.088h142.336c35.2 0.128 63.744 29.312 63.872 65.344v228.736H552.192V335.168zM417.6 162.88c-21.12-20.096-48.128-32.192-72.704-32.192-7.232 0-20.8 1.28-29.44 9.472-1.92 1.856-7.872 7.488-7.872 21.504 0 15.744 8.32 40.32 31.744 62.72 28.672 27.328 75.968 47.936 109.952 47.936a33.344 33.344 0 0 0 16.32-2.688c5.632-11.2-8.064-68.672-48-106.752zM558.016 270.72c4.992 1.28 10.112 1.92 15.296 1.792 33.984 0 81.28-20.608 109.952-47.936 23.424-22.4 31.744-47.104 31.744-62.72 0-14.016-5.952-19.712-7.936-21.568-8.704-8.192-21.888-9.408-29.44-9.408-24.32 0-51.52 11.968-72.64 32.128-39.68 37.632-53.248 94.528-46.976 107.712zM482.368 960H192.128a64.768 64.768 0 0 1-63.808-65.28V672h354.048V960z" p-id="11974" fill="#ffd800"></path></svg>