<?xml version="1.0" standalone="no"?><!DOCTYPE svg PUBLIC "-//W3C//DTD SVG 1.1//EN" "http://www.w3.org/Graphics/SVG/1.1/DTD/svg11.dtd"><svg t="1628419739966" class="icon" viewBox="0 0 1024 1024" version="1.1" xmlns="http://www.w3.org/2000/svg" p-id="12887" xmlns:xlink="http://www.w3.org/1999/xlink" width="64" height="64"><defs><style type="text/css"></style></defs><path d="M512 1024C228.864 1024 0 795.136 0 512S228.864 0 512 0s512 228.864 512 512-228.864 512-512 512z m0-963.584c-246.784 0-451.584 204.8-451.584 451.584s204.8 451.584 451.584 451.584 451.584-204.8 451.584-451.584-204.8-451.584-451.584-451.584z" p-id="12888"></path><path d="M729.088 602.112H494.08c-17.92 0-36.352-17.92-36.352-36.352l6.144-301.056c0-17.92 12.288-30.208 30.208-30.208s30.208 12.288 30.208 30.208l-6.144 276.992h210.944c17.92 0 30.208 12.288 30.208 30.208s-12.288 30.208-30.208 30.208z" p-id="12889"></path></svg>